<svg width="24" height="25" viewBox="0 0 24 25" fill="none" xmlns="http://www.w3.org/2000/svg">
<mask id="mask0_1_40239" style="mask-type:alpha" maskUnits="userSpaceOnUse" x="1" y="1" width="23" height="23">
<ellipse cx="12.0002" cy="12.5" rx="11.0002" ry="11" fill="#D9D9D9"/>
</mask>
<g mask="url(#mask0_1_40239)">
<rect y="0.5" width="24.0004" height="24" fill="#006FFD"/>
</g>
<path fill-rule="evenodd" clip-rule="evenodd" d="M9.63303 11.3132C9.63303 10.7609 10.0807 10.3132 10.633 10.3132H11.9998C12.5521 10.3132 12.9998 10.7609 12.9998 11.3132V15.97H14.2057C14.758 15.97 15.2057 16.4177 15.2057 16.97C15.2057 17.5223 14.758 17.97 14.2057 17.97H9.79395C9.24166 17.97 8.79395 17.5223 8.79395 16.97C8.79395 16.4177 9.24166 15.97 9.79395 15.97H10.9998V12.3132H10.633C10.0807 12.3132 9.63303 11.8655 9.63303 11.3132Z" fill="white"/>
<path d="M13.2324 8.33845C13.2324 9.06111 12.6466 9.64694 11.924 9.64694C11.2013 9.64694 10.6155 9.06111 10.6155 8.33845C10.6155 7.6158 11.2013 7.02997 11.924 7.02997C12.6466 7.02997 13.2324 7.6158 13.2324 8.33845Z" fill="white"/>
</svg>
